<svg id="Line" height="512" viewBox="0 0 64 64" width="512" xmlns="http://www.w3.org/2000/svg"><g fill="#c4a2fc"><path d="m16.36 32.39 13.15 8.68 7.8 5.15a3.06 3.06 0 0 0 3.38 0l7.8-5.15 13.15-8.68a3 3 0 0 0 0-5.05l-21-13.83a3.06 3.06 0 0 0 -3.38 0l-21 13.83a3 3 0 0 0 0 5.05z"/><path d="m61.12 35.13-19.33 12.76a5.05 5.05 0 0 1 -5.58 0l-19.33-12.76a3.35 3.35 0 0 0 -1.88 2.87 3 3 0 0 0 1.36 2.53l21 13.83a3.11 3.11 0 0 0 3.38 0l21-13.83a3 3 0 0 0 1.26-2.53 3.37 3.37 0 0 0 -1.88-2.87z"/><path d="m61.12 43.27-19.33 12.73a5 5 0 0 1 -2.79.84 5.12 5.12 0 0 1 -2.79-.84l-19.33-12.73a3.33 3.33 0 0 0 -1.88 2.87 3 3 0 0 0 1.36 2.52l21 13.83a3.06 3.06 0 0 0 3.38 0l21-13.83a3 3 0 0 0 1.26-2.52 3.35 3.35 0 0 0 -1.88-2.87z"/></g><path d="m48 1h-44a3 3 0 0 0 -3 3v32a3 3 0 0 0 3 3h44a3 3 0 0 0 3-3v-32a3 3 0 0 0 -3-3zm-44 2h44a1 1 0 0 1 1 1v23.59l-9.29-9.3a1 1 0 0 0 -1.42 0l-6.79 6.8-11.79-11.8a1 1 0 0 0 -1.42 0l-15.29 15.3v-24.59a1 1 0 0 1 1-1zm44 34h-44a1 1 0 0 1 -1-1v-4.59l16-16 16.29 16.3a1 1 0 0 0 1.42-1.42l-3.8-3.79 6.09-6.09 10 10v5.59a1 1 0 0 1 -1 1z" fill="#151a6a"/><path d="m32 14a4 4 0 1 0 -4-4 4 4 0 0 0 4 4zm0-6a2 2 0 1 1 -2 2 2 2 0 0 1 2-2z" fill="#151a6a"/></svg>