<svg height="512" viewBox="0 0 512 512" width="512" xmlns="http://www.w3.org/2000/svg"><g><g fill="#57a4ff"><path d="m496 76v28h-480v-28a19.994 19.994 0 0 1 20-20h440a19.994 19.994 0 0 1 20 20z"/><path d="m268.95 399.91 155.05.09h-336v-.09z"/><path d="m88 160v206.06l112-157.97 103.24 145.61 48.76-65.7 72 101.92v-229.92zm248 88a24 24 0 1 1 24-24 24.006 24.006 0 0 1 -24 24z"/><path d="m88 160v206.06l112-157.97 103.24 145.61 48.76-65.7 72 101.92v-229.92zm248 88a24 24 0 1 1 24-24 24.006 24.006 0 0 1 -24 24z"/><path d="m424 400h-155.12l.07-.09z"/><path d="m424 400h-336v-.09h180.95z"/></g><g fill="#004fac"><path d="m476 48h-440a28.031 28.031 0 0 0 -28 28v360a28.031 28.031 0 0 0 28 28h440a28.031 28.031 0 0 0 28-28v-360a28.031 28.031 0 0 0 -28-28zm12 388a12.01 12.01 0 0 1 -12 12h-440a12.01 12.01 0 0 1 -12-12v-324h464zm0-340h-464v-20a12.01 12.01 0 0 1 12-12h440a12.01 12.01 0 0 1 12 12z"/><path d="m40 88h8a8 8 0 0 0 0-16h-8a8 8 0 0 0 0 16z"/><path d="m72 88h8a8 8 0 0 0 0-16h-8a8 8 0 0 0 0 16z"/><path d="m104 88h8a8 8 0 0 0 0-16h-8a8 8 0 0 0 0 16z"/><path d="m424 152h-336a8 8 0 0 0 -8 8v240a8 8 0 0 0 8 8h336a8 8 0 0 0 8-8v-240a8 8 0 0 0 -8-8zm-328 239.91v-23.3l104-146.69 120.52 169.99zm244.2.09-27.08-38.19 38.72-52.17 63.83 90.36zm75.8-27.27-57.47-81.35a8 8 0 0 0 -6.44-3.38 7.912 7.912 0 0 0 -6.51 3.23l-42.19 56.85-96.86-136.62a8.012 8.012 0 0 0 -13.06 0l-97.47 137.48v-172.94h320z"/><path d="m336 256a32 32 0 1 0 -32-32 32.036 32.036 0 0 0 32 32zm0-48a16 16 0 1 1 -16 16 16.019 16.019 0 0 1 16-16z"/></g></g></svg>